<svg xmlns="http://www.w3.org/2000/svg" width="16" height="10" viewBox="0 0 16 10">
    <path fill="#474B68" fill-rule="nonzero" d="M14.461 1.765H10.68v-.92h3.783v.92zm-6.3 3.768c.245.37.367.819.367 1.346 0 .545-.138 1.034-.418 1.466a2.595 2.595 0 0 1-1.724 1.183c-.408.083-.85.124-1.326.124H.83V.464h4.536c1.143.019 1.954.343 2.432.979.288.39.43.859.43 1.403 0 .562-.144 1.011-.434 1.353-.161.191-.4.365-.715.522.478.172.84.441 1.083.812zM2.997 4.087h1.988c.408 0 .738-.076.992-.228.255-.152.381-.421.381-.808 0-.427-.168-.711-.504-.848-.29-.094-.66-.143-1.109-.143H2.996v2.027zm3.553 2.66c0-.476-.2-.806-.598-.983-.222-.101-.536-.153-.939-.156H2.996v2.448h1.985c.408 0 .723-.052.951-.16.41-.201.617-.582.617-1.148zm9.316-1.494c.045.3.066.737.058 1.307h-4.899c.028.661.26 1.124.704 1.388.267.166.59.248.97.248.399 0 .725-.1.975-.302.137-.108.257-.26.362-.452h1.795c-.047.39-.263.787-.652 1.19-.602.64-1.446.96-2.53.96-.895 0-1.685-.27-2.37-.81-.683-.54-1.025-1.418-1.025-2.636 0-1.142.307-2.016.925-2.624.62-.61 1.42-.913 2.407-.913a3.91 3.91 0 0 1 1.582.308c.469.206.856.53 1.161.975.276.392.454.845.537 1.361zm-1.767.172c-.033-.458-.19-.804-.47-1.04-.28-.238-.627-.357-1.043-.357-.452 0-.801.127-1.05.378-.25.25-.405.589-.468 1.019h3.03z"/>
</svg>
