<?xml version="1.0" standalone="no"?>
<!DOCTYPE svg PUBLIC "-//W3C//DTD SVG 20010904//EN"
 "http://www.w3.org/TR/2001/REC-SVG-20010904/DTD/svg10.dtd">
<svg version="1.0" xmlns="http://www.w3.org/2000/svg"
 width="1768.000000pt" height="1708.000000pt" viewBox="0 0 1768.000000 1708.000000"
 preserveAspectRatio="xMidYMid meet">
<metadata>
Created by potrace 1.15, written by Peter Selinger 2001-2017
</metadata>
<g transform="translate(0.000000,1708.000000) scale(0.100000,-0.100000)"
fill="#000000" stroke="none">
<path d="M5052 17067 c-50 -16 -115 -96 -171 -210 -87 -178 -145 -360 -265
-827 -62 -242 -108 -445 -465 -2065 -414 -1877 -777 -3216 -1242 -4575 -726
-2120 -1654 -3937 -2721 -5328 -98 -128 -181 -239 -184 -246 -11 -29 288 -463
507 -736 329 -410 775 -846 1194 -1166 410 -313 818 -565 1310 -809 609 -301
1203 -516 1941 -704 1914 -486 4261 -526 6728 -115 2091 348 4164 1039 5211
1737 174 116 276 198 396 317 90 91 114 122 163 214 108 202 178 495 211 893
15 167 17 277 12 630 -3 236 -13 527 -21 648 -126 1739 -558 4135 -1282 7100
-453 1854 -1011 3797 -1364 4745 -84 227 -186 443 -228 483 l-30 29 -45 -24
c-174 -90 -541 -797 -1042 -2008 -259 -628 -619 -1546 -846 -2162 l-84 -228
-40 0 c-71 0 -5478 190 -5481 192 -1 2 -48 140 -104 308 -542 1622 -1119 2944
-1550 3552 -89 126 -249 286 -325 325 -68 35 -135 46 -183 30z m1235 -7273
c798 -128 1562 -1069 1937 -2386 133 -463 183 -834 173 -1275 -10 -473 -97
-848 -296 -1276 -209 -452 -576 -872 -976 -1117 -89 -55 -308 -160 -405 -195
-226 -80 -407 -110 -670 -109 -218 0 -293 10 -470 60 -352 101 -712 329 -964
610 -295 329 -501 688 -649 1134 -126 375 -177 702 -177 1116 0 484 68 875
245 1393 287 841 765 1510 1321 1847 149 91 369 172 534 199 117 18 281 18
397 -1z m7060 0 c324 -52 639 -231 935 -531 446 -453 818 -1154 1028 -1938 50
-188 94 -411 126 -635 22 -155 31 -653 14 -804 -64 -597 -298 -1173 -654
-1610 -149 -183 -379 -388 -586 -521 -92 -60 -328 -174 -445 -215 -101 -35
-247 -71 -375 -91 -125 -20 -450 -18 -567 4 -256 48 -485 140 -707 284 -329
214 -591 500 -820 897 -171 296 -307 664 -380 1026 -132 657 -71 1359 184
2103 117 341 292 703 472 976 150 226 358 477 497 598 177 155 314 247 493
333 257 123 528 166 785 124z"/>
<path d="M6091 9674 c-137 -115 -260 -636 -336 -1414 -80 -833 -92 -2004 -30
-2945 44 -648 129 -1221 227 -1525 28 -87 100 -230 131 -258 13 -12 40 -25 59
-28 52 -9 98 37 153 151 329 686 433 3492 189 5130 -51 343 -117 611 -188 760
-68 144 -136 187 -205 129z"/>
<path d="M13045 9657 c-331 -346 -500 -2854 -319 -4737 84 -875 235 -1420 394
-1420 155 0 302 520 390 1383 52 510 73 1019 73 1722 0 563 -8 834 -38 1290
-73 1089 -243 1805 -427 1805 -24 0 -41 -10 -73 -43z"/>
</g>
</svg>
